<svg xmlns="http://www.w3.org/2000/svg" viewBox="0 0 15 15"><path fill="currentColor" fill-rule="evenodd" d="M7.28367089,0 L3.14221519,2.58835443 L0.06,2.58835443 L0.06,14.9934177 L2.91651899,14.9934177 L7.03044304,14.9934177 L7.60006329,14.9934177 L11.6506962,14.9934177 L14.5283544,14.9934177 L14.5283544,2.58835443 L11.4250633,2.58835443 L7.28367089,0 Z M5.17392405,2.90481013 L6.56632911,2.90481013 L6.56632911,1.51240506 L7.89544304,1.51240506 L7.89544304,2.90481013 L9.2878481,2.90481013 L9.2878481,4.23392405 L7.89544304,4.23392405 L7.89544304,5.62632911 L6.56632911,5.62632911 L6.56632911,4.23392405 L5.17392405,4.23392405 L5.17392405,2.90481013 L5.17392405,2.90481013 Z M2.65493671,6.70227848 L5.50303797,6.70227848 L5.50303797,8.28455696 L2.65493671,8.28455696 L2.65493671,6.70227848 L2.65493671,6.70227848 Z M2.65493671,9.42379747 L5.50303797,9.42379747 L5.50303797,11.0693671 L2.65493671,11.0693671 L2.65493671,9.42379747 L2.65493671,9.42379747 Z M11.9949369,13.7275949 L2.65493671,13.7275949 L2.65493671,12.1453165 L11.9949369,12.1453165 L11.9949369,13.7275949 Z M11.9967089,11.0693671 L9.14860759,11.0693671 L9.14860759,9.42379747 L11.9967089,9.42379747 L11.9967089,11.0693671 Z M11.9967089,8.28455696 L9.14860759,8.28455696 L9.14860759,6.70227848 L11.9967089,6.70227848 L11.9967089,8.28455696 Z"/></svg>