<svg viewBox="0 0 1024 1024" version="1.1" xmlns="http://www.w3.org/2000/svg"
     xmlns:xlink="http://www.w3.org/1999/xlink" width="200" height="200">
    <path d="M731.277122 1023.653099 292.722878 1023.653099c-161.458275 0-292.375977-123.534548-292.375977-275.886421L0.346901 471.872071c0-76.245522 60.552098-138.006144 141.2797-138.006144l4.90573-68.9033c0-190.479239 163.605172-264.615727 365.467669-264.615727 201.800076 0 365.469716 74.136487 365.469716 264.615727l3.270487 68.9033c80.725556 0 142.912897 61.760622 142.912897 138.006144l0 275.894607C1023.653099 900.118552 892.747677 1023.653099 731.277122 1023.653099L731.277122 1023.653099zM438.914448 728.632899l0 88.036056c0 38.126342 32.680307 68.963675 73.085552 68.963675 40.327474 0 73.098855-30.837332 73.098855-68.963675l0-88.036056c43.463907-23.912619 73.093738-67.963904 73.093738-118.814036 0-76.245522-65.459874-137.946792-146.19157-137.946792-80.725556 0-146.18543 61.701271-146.18543 137.946792C365.81457 660.662855 395.36049 704.721303 438.914448 728.632899L438.914448 728.632899zM512 128.962164c-121.129778 0-219.277122 21.699208-219.277122 136.004557 0 24.310685 0.37146 47.282886 8.508791 68.905346l419.901419 0c8.137331-21.62246 10.144034-44.594661 10.144034-68.905346C731.277122 150.662395 633.066333 128.962164 512 128.962164L512 128.962164zM512 128.962164"
          fill="currentColor"></path>
</svg>