<svg xmlns="http://www.w3.org/2000/svg" viewBox="0 0 76.8 76.8"><path d="M8.5 64H17c0 2.4 1.9 4.3 4.3 4.3H64c2.4 0 4.3-1.9 4.3-4.3V12.8c0-2.4-1.9-4.3-4.3-4.3H21.3c-2.4 0-4.3 1.9-4.3 4.3H8.5V8.5C8.5 3.8 12.4 0 17 0h51.3c4.7 0 8.5 3.8 8.5 8.5v59.8c0 4.7-3.8 8.5-8.5 8.5H17c-4.7 0-8.5-3.8-8.5-8.5V64z" fill="currentColor"/><path d="M39.3 40.1c-5.7-4.2-6.8-12.3-2.6-17.9s12.3-6.8 17.9-2.6 6.8 12.3 2.6 17.9c-.7 1-1.6 1.8-2.6 2.6 6 2.9 9.4 9.1 9.4 15.4 0 4.3-4.3 4.3-8.5 4.3H38.4c-4.3 0-8.5 0-8.5-4.3 0-6.3 3.4-12.5 9.4-15.4zM0 21.3C0 19 1.9 17.1 4.2 17h17.2c2.3 0 4.2 1.9 4.2 4.3 0 2.3-1.9 4.2-4.2 4.3H4.2c-2.3 0-4.2-1.9-4.2-4.3zm0 17.1c0-2.3 1.9-4.2 4.2-4.3h17.2c2.3 0 4.2 1.9 4.2 4.3 0 2.3-1.9 4.2-4.2 4.3H4.2c-2.3 0-4.2-1.9-4.2-4.3zm0 17.1c0-2.3 1.9-4.2 4.2-4.3h17.2c2.3 0 4.2 1.9 4.2 4.3 0 2.3-1.9 4.2-4.2 4.3H4.2c-2.3-.1-4.2-2-4.2-4.3z" fill="currentColor"/></svg>